<?xml version="1.0" encoding="UTF-8" standalone="no"?>
<svg
   xmlns:dc="http://purl.org/dc/elements/1.1/"
   xmlns:cc="http://creativecommons.org/ns#"
   xmlns:rdf="http://www.w3.org/1999/02/22-rdf-syntax-ns#"
   xmlns:svg="http://www.w3.org/2000/svg"
   xmlns="http://www.w3.org/2000/svg"
   xmlns:sodipodi="http://sodipodi.sourceforge.net/DTD/sodipodi-0.dtd"
   xmlns:inkscape="http://www.inkscape.org/namespaces/inkscape"
   role="img"
   viewBox="0 0 24 24"
   version="1.1"
   id="svg6"
   sodipodi:docname="linkedin.svg"
   inkscape:version="0.92.1 r15371">
  <metadata
     id="metadata12">
    <rdf:RDF>
      <cc:Work
         rdf:about="">
        <dc:format>image/svg+xml</dc:format>
        <dc:type
           rdf:resource="http://purl.org/dc/dcmitype/StillImage" />
      </cc:Work>
    </rdf:RDF>
  </metadata>
  <defs
     id="defs10" />
  <sodipodi:namedview
     pagecolor="#ffffff"
     bordercolor="#666666"
     borderopacity="1"
     objecttolerance="10"
     gridtolerance="10"
     guidetolerance="10"
     inkscape:pageopacity="0"
     inkscape:pageshadow="2"
     inkscape:window-width="640"
     inkscape:window-height="772"
     id="namedview8"
     showgrid="false"
     inkscape:zoom="9.8333333"
     inkscape:cx="10.220339"
     inkscape:cy="12"
     inkscape:window-x="0"
     inkscape:window-y="24"
     inkscape:window-maximized="0"
     inkscape:current-layer="svg6" />
  <title
     id="title2">LinkedIn icon</title>
  <path
     d="M20.447 20.452h-3.554v-5.569c0-1.328-.027-3.037-1.852-3.037-1.853 0-2.136 1.445-2.136 2.939v5.667H9.351V9h3.414v1.561h.046c.477-.9 1.637-1.85 3.37-1.85 3.601 0 4.267 2.37 4.267 5.455v6.286zM5.337 7.433c-1.144 0-2.063-.926-2.063-2.065 0-1.138.92-2.063 2.063-2.063 1.14 0 2.064.925 2.064 2.063 0 1.139-.925 2.065-2.064 2.065zm1.782 13.019H3.555V9h3.564v11.452zM22.225 0H1.771C.792 0 0 .774 0 1.729v20.542C0 23.227.792 24 1.771 24h20.451C23.2 24 24 23.227 24 22.271V1.729C24 .774 23.2 0 22.222 0h.003z"
     id="path4" />
  <path
     style="fill:#ffffff;stroke-width:0.10169491"
     d="M 1.3030751,23.882469 C 0.88577137,23.756004 0.51855549,23.477112 0.29670621,23.118153 0.09430738,22.790663 0.09152542,22.640028 0.09152542,12.00812 V 1.2300779 L 0.32275898,0.88695049 c 0.12717846,-0.1887201 0.3856409,-0.44718254 0.574361,-0.57436101 L 1.2402474,0.08135593 H 11.9656 c 10.629708,0 10.728665,0.001862 11.096877,0.20880883 0.204338,0.11484486 0.485145,0.37461115 0.624016,0.57725843 l 0.25249,0.36844961 0.02728,10.5151502 c 0.01933,7.452655 -0.0055,10.637008 -0.08538,10.933549 -0.142013,0.527397 -0.645577,1.037579 -1.167007,1.182345 -0.471527,0.130911 -20.9809817,0.145808 -21.4107979,0.01555 z M 7.159322,14.725424 V 8.979661 L 5.3542373,8.951891 3.5491525,8.924121 v 5.801304 5.801303 l 1.8050848,-0.02777 1.8050847,-0.02777 z m 5.771148,2.364407 c 0.05421,-3.811004 0.09591,-4.081701 0.722253,-4.688781 0.675334,-0.654558 1.97266,-0.665889 2.615704,-0.02285 0.49199,0.49199 0.53133,0.80646 0.576702,4.609931 l 0.04216,3.533898 h 1.833659 1.833659 l -0.04785,-4.042373 C 20.46313,12.794554 20.440224,12.36836 20.24758,11.657382 19.965114,10.614906 19.725901,10.17379 19.160335,9.6524687 18.539008,9.0797502 18.020891,8.8618766 16.97141,8.7320043 15.420043,8.5400239 14.167047,8.9240718 13.286441,9.8614617 L 12.80339,10.375661 V 9.652237 8.9288136 H 11.074576 9.3457627 v 5.7966104 5.79661 H 11.113706 12.88165 Z M 5.9207572,7.3960552 C 6.3942021,7.2645869 7.090386,6.6564613 7.2765632,6.2117409 7.3519111,6.0317577 7.4135593,5.6527454 7.4135593,5.3694915 7.4135593,4.6923788 7.2303854,4.2819496 6.7244389,3.8254116 5.8947403,3.0767376 4.8044572,3.0556444 3.9880359,3.7724716 3.0060755,4.6346442 3.0082127,6.1062148 3.9926759,6.970589 4.1982445,7.1510808 4.4914453,7.3263013 4.6442332,7.359968 4.7970209,7.393635 4.9677918,7.436446 5.023724,7.455104 5.2258481,7.522529 5.5396927,7.501869 5.9207524,7.396055 Z"
     id="path3684"
     inkscape:connector-curvature="0" />
</svg>
