<?xml version="1.0" encoding="UTF-8" standalone="no"?>
<svg
   xmlns:dc="http://purl.org/dc/elements/1.1/"
   xmlns:cc="http://creativecommons.org/ns#"
   xmlns:rdf="http://www.w3.org/1999/02/22-rdf-syntax-ns#"
   xmlns:svg="http://www.w3.org/2000/svg"
   xmlns="http://www.w3.org/2000/svg"
   xmlns:sodipodi="http://sodipodi.sourceforge.net/DTD/sodipodi-0.dtd"
   xmlns:inkscape="http://www.inkscape.org/namespaces/inkscape"
   role="img"
   viewBox="0 0 24 24"
   version="1.1"
   id="svg64"
   sodipodi:docname="youtube.svg"
   inkscape:version="0.92.1 r15371">
  <metadata
     id="metadata70">
    <rdf:RDF>
      <cc:Work
         rdf:about="">
        <dc:format>image/svg+xml</dc:format>
        <dc:type
           rdf:resource="http://purl.org/dc/dcmitype/StillImage" />
      </cc:Work>
    </rdf:RDF>
  </metadata>
  <defs
     id="defs68">
    <filter
       style="color-interpolation-filters:sRGB;"
       inkscape:label="Fade to Black or White"
       id="filter74">
      <feColorMatrix
         values="1 0 0 0 0 0 1 0 0 0 0 0 1 0 0 0 0 0 1 0"
         id="feColorMatrix72" />
    </filter>
  </defs>
  <sodipodi:namedview
     pagecolor="#ffffff"
     bordercolor="#666666"
     borderopacity="1"
     objecttolerance="10"
     gridtolerance="10"
     guidetolerance="10"
     inkscape:pageopacity="0"
     inkscape:pageshadow="2"
     inkscape:window-width="1920"
     inkscape:window-height="1019"
     id="namedview66"
     showgrid="false"
     inkscape:zoom="34.416667"
     inkscape:cx="12"
     inkscape:cy="12"
     inkscape:window-x="0"
     inkscape:window-y="24"
     inkscape:window-maximized="1"
     inkscape:current-layer="svg64" />
  <title
     id="title60">YouTube icon</title>
  <path
     d="M23.495 6.205a3.007 3.007 0 0 0-2.088-2.088c-1.87-.501-9.396-.501-9.396-.501s-7.507-.01-9.396.501A3.007 3.007 0 0 0 .527 6.205a31.247 31.247 0 0 0-.522 5.805 31.247 31.247 0 0 0 .522 5.783 3.007 3.007 0 0 0 2.088 2.088c1.868.502 9.396.502 9.396.502s7.506 0 9.396-.502a3.007 3.007 0 0 0 2.088-2.088 31.247 31.247 0 0 0 .5-5.783 31.247 31.247 0 0 0-.5-5.805zM9.609 15.601V8.408l6.264 3.602z"
     id="path62"
     style="filter:url(#filter74)" />
  <path
     style="fill:#333333;stroke-width:0.02905569"
     d="M 9.4983051,20.342383 C 5.7217615,20.27091 3.27317,20.08804 2.4676381,19.817308 1.78634,19.588329 1.2083478,19.112772 0.83097295,18.470702 0.59629383,18.071416 0.51341619,17.753954 0.34930175,16.625666 -0.04721104,13.899636 -0.08804628,11.015487 0.23123423,8.2866828 0.31403233,7.5790297 0.48755985,6.4413814 0.55254816,6.1801453 0.6083624,5.9557865 0.84473361,5.4700277 0.99791271,5.264891 1.1670385,5.0383986 1.4780941,4.7282584 1.6823245,4.5824933 1.9058279,4.4229724 2.26744,4.2423329 2.5182526,4.1649142 3.2456641,3.9403831 4.8135812,3.8007645 7.8566586,3.6895445 c 1.3429732,-0.049084 6.8405674,-0.048642 8.2082324,6.593e-4 2.451577,0.088374 3.852469,0.1853342 4.765133,0.3298094 0.87545,0.1385842 1.399458,0.3901983 1.905337,0.9148908 0.328832,0.3410613 0.559299,0.7090756 0.690682,1.1028972 0.151726,0.4547961 0.39918,2.3722288 0.503967,3.9050559 0.04833,0.7068899 0.04858,3.3798199 3.95e-4,4.0968519 -0.118697,1.766251 -0.367694,3.587426 -0.553477,4.048166 -0.362524,0.899056 -1.161225,1.592317 -2.079515,1.804988 -1.486643,0.344299 -6.754494,0.544993 -11.7991079,0.44952 z M 12.742946,13.821326 C 14.458151,12.838262 15.864455,12.024339 15.868065,12.01261 15.873487,11.994994 9.7168998,8.4382643 9.6281634,8.4077483 9.610082,8.4015301 9.6,9.6887006 9.6,12.00339 c 0,1.98293 0.00549,3.605327 0.012195,3.605327 0.00671,0 1.415545,-0.804326 3.130751,-1.787391 z"
     id="path76"
     inkscape:connector-curvature="0" />
  <path
     style="fill:#ffffff;stroke-width:0.02905569"
     d="M 9.788862,20.354058 C 6.9104185,20.311646 4.1727452,20.154397 3.0899146,19.969278 2.3340646,19.840059 1.8364781,19.605085 1.3666514,19.155504 1.0179168,18.821798 0.77629034,18.457824 0.6098262,18.015462 0.4867372,17.688365 0.25123241,16.132747 0.14429849,14.940436 -0.01717769,13.13998 -0.02768053,11.11378 0.11545656,9.3762712 0.23168514,7.9653986 0.466078,6.3871486 0.62434216,5.9497643 0.94262856,5.070137 1.7442665,4.3505583 2.6656188,4.117442 3.562703,3.8904659 5.5021287,3.7460619 8.757385,3.6638667 c 1.500274,-0.037882 6.375026,-0.018904 7.612591,0.029637 3.128383,0.1227042 4.632615,0.2686463 5.280402,0.5123102 0.415886,0.1564343 0.859356,0.4521665 1.145776,0.7640709 0.335161,0.3649827 0.612133,0.8888251 0.705308,1.3339644 0.134661,0.6433411 0.327606,2.1902268 0.414032,3.3193952 0.06328,0.8267776 0.07303,3.7701446 0.01506,4.5472156 -0.120589,1.616477 -0.367214,3.445588 -0.519091,3.849879 -0.27956,0.744174 -0.839687,1.349372 -1.561036,1.686645 -0.439549,0.205515 -1.008037,0.311673 -2.240741,0.41843 -2.15456,0.186593 -6.232018,0.281523 -9.820823,0.228644 z m 3.116624,-6.633961 C 14.536905,12.78523 15.86287,12.011243 15.852074,12.000127 15.81689,11.963896 9.7031776,8.452843 9.6508475,8.4388146 9.602622,8.4258866 9.6,8.610478 9.6,12.018633 v 3.593449 l 0.1696341,-0.09611 c 0.093299,-0.05286 1.5044319,-0.861004 3.1358519,-1.795871 z"
     id="path78"
     inkscape:connector-curvature="0" />
</svg>
